<?xml version="1.0" standalone="no"?>
<!DOCTYPE svg PUBLIC "-//W3C//DTD SVG 20010904//EN"
 "http://www.w3.org/TR/2001/REC-SVG-20010904/DTD/svg10.dtd">
<svg version="1.0" xmlns="http://www.w3.org/2000/svg"
 width="700.000000pt" height="700.000000pt" viewBox="0 0 700.000000 700.000000"
 preserveAspectRatio="xMidYMid meet">
<metadata>
Created by potrace 1.14, written by Peter Selinger 2001-2017
</metadata>
<g transform="translate(0.000000,700.000000) scale(0.100000,-0.100000)"
fill="#000000" stroke="none">
<path d="M2344 4589 c-16 -5 -41 -20 -55 -35 l-24 -26 -3 -839 c-2 -575 1
-853 8 -880 19 -69 48 -79 230 -79 l155 0 32 -68 c41 -88 116 -162 212 -210
65 -32 84 -37 165 -40 70 -3 105 1 152 16 124 39 224 128 275 245 l24 57 565
0 566 0 27 -60 c41 -89 123 -172 215 -217 74 -37 79 -38 186 -38 91 1 121 5
166 23 109 44 212 145 248 245 l17 47 123 0 124 0 34 34 34 34 0 455 0 455
-33 48 c-160 238 -310 442 -332 452 -18 8 -123 12 -350 12 l-323 0 -4 149 c-3
168 -13 195 -79 218 -41 14 -2305 17 -2355 2z m2226 -924 l0 -725 -523 0 -524
0 -13 43 c-20 70 -50 118 -107 178 -65 69 -152 114 -250 131 -211 36 -433
-103 -494 -309 l-12 -43 -89 0 -88 0 0 725 0 725 1050 0 1050 0 0 -725z m380
95 l0 -250 29 -32 29 -33 306 -3 306 -3 0 -250 0 -250 -51 3 -51 3 -23 61
c-58 162 -206 274 -383 290 -99 9 -217 -26 -309 -92 l-23 -16 0 411 0 411 85
0 85 0 0 -250z m537 70 c68 -96 123 -176 123 -177 0 -2 -101 -3 -225 -3 l-225
0 0 180 0 181 102 -3 101 -3 124 -175z m-2313 -754 c178 -74 201 -323 38 -422
-57 -35 -112 -47 -163 -38 -78 15 -154 76 -183 146 -23 54 -20 143 5 195 24
50 89 110 134 122 47 14 132 12 169 -3z m2014 -12 c124 -62 167 -219 92 -337
-103 -163 -339 -145 -419 33 -91 200 128 403 327 304z"/>
<path d="M1209 4561 c-23 -23 -29 -38 -29 -71 0 -33 6 -48 29 -71 l29 -29 407
0 407 0 29 29 c41 41 41 101 0 142 l-29 29 -407 0 -407 0 -29 -29z"/>
<path d="M1393 4200 c-34 -20 -53 -66 -45 -107 6 -32 49 -72 86 -78 17 -3 162
-5 323 -3 l292 3 30 29 c51 49 41 130 -19 161 -24 12 -81 15 -332 15 -283 0
-305 -1 -335 -20z"/>
<path d="M1613 3835 c-65 -28 -80 -116 -27 -166 25 -24 30 -24 231 -27 144 -2
215 0 235 9 83 34 78 157 -9 190 -40 15 -392 11 -430 -6z"/>
<path d="M1827 3450 c-51 -41 -52 -119 -1 -159 23 -18 41 -21 126 -21 97 0
100 1 129 29 23 23 29 38 29 71 0 33 -6 48 -29 71 -29 28 -32 29 -129 29 -84
0 -103 -3 -125 -20z"/>
</g>
</svg>
