<svg width="13" height="18" viewBox="0 0 13 18" fill="none" xmlns="http://www.w3.org/2000/svg">
<path d="M1.50002 15.6666H11.5C11.9584 15.6666 12.3334 16.0416 12.3334 16.5C12.3334 16.9583 11.9584 17.3333 11.5 17.3333H1.50002C1.04169 17.3333 0.666687 16.9583 0.666687 16.5C0.666687 16.0416 1.04169 15.6666 1.50002 15.6666ZM6.50002 4.83329C5.58335 4.83329 4.83335 5.58329 4.83335 6.49996C4.83335 7.41663 5.58335 8.16663 6.50002 8.16663C7.41669 8.16663 8.16669 7.41663 8.16669 6.49996C8.16669 5.58329 7.41669 4.83329 6.50002 4.83329ZM6.50002 0.666626C9.22502 0.666626 12.3334 2.71663 12.3334 6.62496C12.3334 9.10829 10.5584 11.725 7.00835 14.45C6.70835 14.6833 6.29169 14.6833 5.99169 14.45C2.44169 11.7166 0.666687 9.10829 0.666687 6.62496C0.666687 2.71663 3.77502 0.666626 6.50002 0.666626Z" fill="#333333" fill-opacity="0.7"/>
</svg>
